<mxfile host="65bd71144e">
    <diagram id="dn8XM-hIcN53fyT003ag" name="Page-1">
        <mxGraphModel dx="1777" dy="598" grid="1" gridSize="10" guides="1" tooltips="1" connect="1" arrows="1" fold="1" page="1" pageScale="1" pageWidth="850" pageHeight="1100" math="0" shadow="0">
            <root>
                <mxCell id="0"/>
                <mxCell id="1" parent="0"/>
                <mxCell id="139" value="«Component»&lt;br style=&quot;font-size: 14px&quot;&gt;&lt;b&gt;Controller&lt;/b&gt;" style="html=1;dropTarget=0;fontSize=14;verticalAlign=top;" vertex="1" parent="1">
                    <mxGeometry x="-470" width="300" height="560" as="geometry"/>
                </mxCell>
                <mxCell id="140" value="" style="shape=module;jettyWidth=8;jettyHeight=4;fontSize=14;" vertex="1" parent="139">
                    <mxGeometry x="1" width="20" height="20" relative="1" as="geometry">
                        <mxPoint x="-27" y="7" as="offset"/>
                    </mxGeometry>
                </mxCell>
                <mxCell id="137" value="«Component»&lt;br style=&quot;font-size: 14px&quot;&gt;&lt;b&gt;WebsiteUI&lt;/b&gt;" style="html=1;dropTarget=0;fontSize=14;verticalAlign=top;" vertex="1" parent="1">
                    <mxGeometry x="-850" width="260" height="340" as="geometry"/>
                </mxCell>
                <mxCell id="138" value="" style="shape=module;jettyWidth=8;jettyHeight=4;fontSize=14;" vertex="1" parent="137">
                    <mxGeometry x="1" width="20" height="20" relative="1" as="geometry">
                        <mxPoint x="-27" y="7" as="offset"/>
                    </mxGeometry>
                </mxCell>
                <mxCell id="86" value="«Component»&lt;br style=&quot;font-size: 14px&quot;&gt;&lt;b&gt;Third-party services&lt;/b&gt;" style="html=1;dropTarget=0;fontSize=14;verticalAlign=top;" vertex="1" parent="1">
                    <mxGeometry x="-850" y="665" width="276" height="210" as="geometry"/>
                </mxCell>
                <mxCell id="87" value="" style="shape=module;jettyWidth=8;jettyHeight=4;fontSize=14;" vertex="1" parent="86">
                    <mxGeometry x="1" width="20" height="20" relative="1" as="geometry">
                        <mxPoint x="-27" y="7" as="offset"/>
                    </mxGeometry>
                </mxCell>
                <mxCell id="146" style="edgeStyle=none;html=1;fontSize=14;endArrow=none;endFill=0;startSize=10;endSize=10;strokeColor=#000000;" edge="1" parent="1" source="2" target="141">
                    <mxGeometry relative="1" as="geometry"/>
                </mxCell>
                <mxCell id="172" style="edgeStyle=orthogonalEdgeStyle;rounded=0;html=1;fontSize=14;startArrow=none;startFill=0;endArrow=none;endFill=0;startSize=20;endSize=20;" edge="1" parent="1" source="2" target="170">
                    <mxGeometry relative="1" as="geometry">
                        <Array as="points">
                            <mxPoint x="-210" y="320"/>
                            <mxPoint x="-210" y="320"/>
                        </Array>
                    </mxGeometry>
                </mxCell>
                <mxCell id="2" value="«Component»&lt;br style=&quot;font-size: 14px&quot;&gt;&lt;b&gt;Cart&lt;/b&gt;" style="html=1;dropTarget=0;fontSize=14;" parent="1" vertex="1">
                    <mxGeometry x="-405" y="290" width="180" height="70" as="geometry"/>
                </mxCell>
                <mxCell id="3" value="" style="shape=module;jettyWidth=8;jettyHeight=4;fontSize=14;" parent="2" vertex="1">
                    <mxGeometry x="1" width="20" height="20" relative="1" as="geometry">
                        <mxPoint x="-27" y="7" as="offset"/>
                    </mxGeometry>
                </mxCell>
                <mxCell id="17" value="«Component»&lt;br style=&quot;font-size: 14px&quot;&gt;&lt;b style=&quot;font-size: 14px&quot;&gt;Payment services&lt;/b&gt;" style="html=1;dropTarget=0;fontSize=14;verticalAlign=top;" vertex="1" parent="1">
                    <mxGeometry x="-430" y="665" width="260" height="205" as="geometry"/>
                </mxCell>
                <mxCell id="18" value="" style="shape=module;jettyWidth=8;jettyHeight=4;fontSize=14;" vertex="1" parent="17">
                    <mxGeometry x="1" width="20" height="20" relative="1" as="geometry">
                        <mxPoint x="-27" y="7" as="offset"/>
                    </mxGeometry>
                </mxCell>
                <mxCell id="39" value="Fetch" style="edgeStyle=none;html=1;fontSize=14;startArrow=none;startFill=0;endArrow=none;endFill=0;startSize=20;endSize=20;" edge="1" parent="1" source="27" target="38">
                    <mxGeometry x="1" y="-43" relative="1" as="geometry">
                        <mxPoint x="-2" y="-13" as="offset"/>
                    </mxGeometry>
                </mxCell>
                <mxCell id="156" style="edgeStyle=orthogonalEdgeStyle;rounded=0;html=1;fontSize=14;endArrow=none;endFill=0;startSize=10;endSize=10;strokeColor=#000000;" edge="1" parent="1" source="27" target="141">
                    <mxGeometry relative="1" as="geometry">
                        <Array as="points">
                            <mxPoint x="-440" y="495"/>
                            <mxPoint x="-440" y="330"/>
                        </Array>
                    </mxGeometry>
                </mxCell>
                <mxCell id="173" style="edgeStyle=orthogonalEdgeStyle;rounded=0;html=1;fontSize=14;startArrow=none;startFill=0;endArrow=none;endFill=0;startSize=20;endSize=20;" edge="1" parent="1" source="27" target="170">
                    <mxGeometry relative="1" as="geometry">
                        <Array as="points">
                            <mxPoint x="-200" y="495"/>
                            <mxPoint x="-200" y="325"/>
                        </Array>
                    </mxGeometry>
                </mxCell>
                <mxCell id="27" value="«Component»&lt;br style=&quot;font-size: 14px&quot;&gt;&lt;b style=&quot;font-size: 14px&quot;&gt;Order&lt;/b&gt;" style="html=1;dropTarget=0;fontSize=14;verticalAlign=middle;" vertex="1" parent="1">
                    <mxGeometry x="-410" y="460" width="190" height="70" as="geometry"/>
                </mxCell>
                <mxCell id="28" value="" style="shape=module;jettyWidth=8;jettyHeight=4;fontSize=14;" vertex="1" parent="27">
                    <mxGeometry x="1" width="20" height="20" relative="1" as="geometry">
                        <mxPoint x="-27" y="7" as="offset"/>
                    </mxGeometry>
                </mxCell>
                <mxCell id="35" style="edgeStyle=none;html=1;fontSize=14;endArrow=none;endFill=0;endSize=20;" edge="1" parent="1" source="2" target="37">
                    <mxGeometry relative="1" as="geometry">
                        <mxPoint x="-315" y="360" as="targetPoint"/>
                        <mxPoint x="-307.6666666666665" y="299.9999999999999" as="sourcePoint"/>
                    </mxGeometry>
                </mxCell>
                <mxCell id="37" value="" style="ellipse;whiteSpace=wrap;html=1;aspect=fixed;fontSize=14;strokeColor=#000000;strokeWidth=1;verticalAlign=top;" vertex="1" parent="1">
                    <mxGeometry x="-325" y="400" width="20" height="20" as="geometry"/>
                </mxCell>
                <mxCell id="38" value="" style="shape=requiredInterface;html=1;verticalLabelPosition=bottom;fontSize=14;strokeColor=#000000;strokeWidth=1;verticalAlign=top;rotation=90;horizontal=1;" vertex="1" parent="1">
                    <mxGeometry x="-325" y="400" width="20" height="30" as="geometry"/>
                </mxCell>
                <mxCell id="98" style="edgeStyle=orthogonalEdgeStyle;rounded=0;html=1;fontSize=14;startArrow=none;startFill=0;endArrow=none;endFill=0;startSize=20;endSize=20;" edge="1" parent="1" source="4" target="96">
                    <mxGeometry relative="1" as="geometry">
                        <Array as="points">
                            <mxPoint x="-596" y="744.5"/>
                            <mxPoint x="-596" y="780.5"/>
                        </Array>
                    </mxGeometry>
                </mxCell>
                <mxCell id="4" value="«Component»&lt;br style=&quot;font-size: 14px&quot;&gt;&lt;b&gt;Digital wallet services&lt;/b&gt;" style="html=1;dropTarget=0;fontSize=14;verticalAlign=middle;" vertex="1" parent="1">
                    <mxGeometry x="-832" y="715" width="220" height="60" as="geometry"/>
                </mxCell>
                <mxCell id="5" value="" style="shape=module;jettyWidth=8;jettyHeight=4;fontSize=14;" vertex="1" parent="4">
                    <mxGeometry x="1" width="20" height="20" relative="1" as="geometry">
                        <mxPoint x="-27" y="7" as="offset"/>
                    </mxGeometry>
                </mxCell>
                <mxCell id="100" style="edgeStyle=orthogonalEdgeStyle;rounded=0;html=1;fontSize=14;startArrow=none;startFill=0;endArrow=none;endFill=0;startSize=20;endSize=20;" edge="1" parent="1" source="8" target="96">
                    <mxGeometry relative="1" as="geometry">
                        <Array as="points">
                            <mxPoint x="-596" y="824.5"/>
                            <mxPoint x="-596" y="789.5"/>
                        </Array>
                    </mxGeometry>
                </mxCell>
                <mxCell id="8" value="«Component»&lt;br style=&quot;font-size: 14px&quot;&gt;&lt;b&gt;Credit card services&lt;/b&gt;" style="html=1;dropTarget=0;fontSize=14;verticalAlign=middle;" vertex="1" parent="1">
                    <mxGeometry x="-832" y="795" width="220" height="60" as="geometry"/>
                </mxCell>
                <mxCell id="9" value="" style="shape=module;jettyWidth=8;jettyHeight=4;fontSize=14;" vertex="1" parent="8">
                    <mxGeometry x="1" width="20" height="20" relative="1" as="geometry">
                        <mxPoint x="-27" y="7" as="offset"/>
                    </mxGeometry>
                </mxCell>
                <mxCell id="48" value="Purchase" style="edgeStyle=orthogonalEdgeStyle;html=1;fontSize=14;startArrow=none;startFill=0;endArrow=none;endFill=0;startSize=20;endSize=20;rounded=0;" edge="1" target="51" parent="1" source="27">
                    <mxGeometry as="geometry">
                        <mxPoint x="-160" y="590" as="sourcePoint"/>
                        <mxPoint x="52" y="17" as="offset"/>
                        <mxPoint x="-315" y="660" as="targetPoint"/>
                        <Array as="points">
                            <mxPoint x="-320" y="619"/>
                        </Array>
                    </mxGeometry>
                </mxCell>
                <mxCell id="49" style="edgeStyle=orthogonalEdgeStyle;html=1;fontSize=14;endArrow=none;endFill=0;endSize=20;rounded=0;" edge="1" target="50" parent="1" source="67">
                    <mxGeometry x="-145" y="580" as="geometry">
                        <mxPoint x="-130" y="640" as="targetPoint"/>
                        <mxPoint x="-130" y="580" as="sourcePoint"/>
                        <Array as="points">
                            <mxPoint x="-140" y="768"/>
                            <mxPoint x="-140" y="619"/>
                        </Array>
                    </mxGeometry>
                </mxCell>
                <mxCell id="50" value="" style="ellipse;whiteSpace=wrap;html=1;aspect=fixed;fontSize=14;strokeColor=#000000;strokeWidth=1;verticalAlign=top;" vertex="1" parent="1">
                    <mxGeometry x="-235" y="609" width="20" height="20" as="geometry"/>
                </mxCell>
                <mxCell id="51" value="" style="shape=requiredInterface;html=1;verticalLabelPosition=bottom;fontSize=14;strokeColor=#000000;strokeWidth=1;verticalAlign=top;rotation=-180;" vertex="1" parent="1">
                    <mxGeometry x="-240" y="604" width="20" height="30" as="geometry"/>
                </mxCell>
                <mxCell id="167" style="edgeStyle=orthogonalEdgeStyle;rounded=0;html=1;fontSize=14;startArrow=none;startFill=0;endArrow=none;endFill=0;startSize=20;endSize=20;" edge="1" parent="1" source="12" target="67">
                    <mxGeometry relative="1" as="geometry">
                        <Array as="points">
                            <mxPoint x="-200" y="810"/>
                            <mxPoint x="-200" y="772"/>
                        </Array>
                    </mxGeometry>
                </mxCell>
                <mxCell id="178" style="edgeStyle=orthogonalEdgeStyle;rounded=0;html=1;fontSize=14;startArrow=none;startFill=0;endArrow=none;endFill=0;startSize=20;endSize=20;" edge="1" parent="1" source="12" target="177">
                    <mxGeometry relative="1" as="geometry">
                        <Array as="points">
                            <mxPoint x="-200" y="830"/>
                            <mxPoint x="-200" y="840"/>
                        </Array>
                    </mxGeometry>
                </mxCell>
                <mxCell id="12" value="«Component»&lt;br style=&quot;font-size: 14px&quot;&gt;&lt;b&gt;Point wallet services&lt;/b&gt;" style="html=1;dropTarget=0;fontSize=14;verticalAlign=middle;" vertex="1" parent="1">
                    <mxGeometry x="-390" y="795" width="180" height="55" as="geometry"/>
                </mxCell>
                <mxCell id="13" value="" style="shape=module;jettyWidth=8;jettyHeight=4;fontSize=14;" vertex="1" parent="12">
                    <mxGeometry x="1" width="20" height="20" relative="1" as="geometry">
                        <mxPoint x="-27" y="7" as="offset"/>
                    </mxGeometry>
                </mxCell>
                <mxCell id="66" style="edgeStyle=orthogonalEdgeStyle;html=1;fontSize=14;startArrow=none;startFill=0;endArrow=none;endFill=0;startSize=20;endSize=20;rounded=0;" edge="1" parent="1" source="54" target="67">
                    <mxGeometry relative="1" as="geometry">
                        <mxPoint x="-190" y="842" as="targetPoint"/>
                        <Array as="points">
                            <mxPoint x="-200" y="748"/>
                            <mxPoint x="-200" y="764"/>
                        </Array>
                    </mxGeometry>
                </mxCell>
                <mxCell id="75" style="edgeStyle=orthogonalEdgeStyle;rounded=0;html=1;fontSize=14;startArrow=none;startFill=0;endArrow=none;endFill=0;startSize=20;endSize=20;" edge="1" parent="1" source="54" target="69">
                    <mxGeometry relative="1" as="geometry">
                        <Array as="points">
                            <mxPoint x="-400" y="748"/>
                            <mxPoint x="-400" y="785"/>
                        </Array>
                    </mxGeometry>
                </mxCell>
                <mxCell id="54" value="«Component»&lt;br style=&quot;font-size: 14px&quot;&gt;&lt;b&gt;Third-party services&lt;/b&gt;" style="html=1;dropTarget=0;fontSize=14;verticalAlign=middle;" vertex="1" parent="1">
                    <mxGeometry x="-390" y="720" width="180" height="55" as="geometry"/>
                </mxCell>
                <mxCell id="55" value="" style="shape=module;jettyWidth=8;jettyHeight=4;fontSize=14;" vertex="1" parent="54">
                    <mxGeometry x="1" width="20" height="20" relative="1" as="geometry">
                        <mxPoint x="-27" y="7" as="offset"/>
                    </mxGeometry>
                </mxCell>
                <mxCell id="67" value="" style="whiteSpace=wrap;html=1;aspect=fixed;fontSize=14;strokeColor=#000000;strokeWidth=1;verticalAlign=middle;" vertex="1" parent="1">
                    <mxGeometry x="-180" y="757.5" width="20" height="20" as="geometry"/>
                </mxCell>
                <mxCell id="69" value="" style="whiteSpace=wrap;html=1;aspect=fixed;fontSize=14;strokeColor=#000000;strokeWidth=1;verticalAlign=middle;" vertex="1" parent="1">
                    <mxGeometry x="-440" y="775" width="20" height="20" as="geometry"/>
                </mxCell>
                <mxCell id="175" style="edgeStyle=orthogonalEdgeStyle;rounded=0;html=1;fontSize=14;startArrow=none;startFill=0;endArrow=none;endFill=0;startSize=20;endSize=20;" edge="1" parent="1" source="72" target="96">
                    <mxGeometry relative="1" as="geometry"/>
                </mxCell>
                <mxCell id="72" value="" style="ellipse;whiteSpace=wrap;html=1;aspect=fixed;fontSize=14;strokeColor=#000000;strokeWidth=1;verticalAlign=top;" vertex="1" parent="1">
                    <mxGeometry x="-514" y="775" width="20" height="20" as="geometry"/>
                </mxCell>
                <mxCell id="176" value="Adapt" style="edgeStyle=orthogonalEdgeStyle;rounded=0;html=1;fontSize=14;startArrow=none;startFill=0;endArrow=none;endFill=0;startSize=20;endSize=20;" edge="1" parent="1" source="73" target="69">
                    <mxGeometry x="-1" y="30" relative="1" as="geometry">
                        <mxPoint x="-13" y="3" as="offset"/>
                    </mxGeometry>
                </mxCell>
                <mxCell id="73" value="" style="shape=requiredInterface;html=1;verticalLabelPosition=bottom;fontSize=14;strokeColor=#000000;strokeWidth=1;verticalAlign=top;rotation=0;" vertex="1" parent="1">
                    <mxGeometry x="-510" y="770" width="20" height="30" as="geometry"/>
                </mxCell>
                <mxCell id="92" value="Pay" style="edgeStyle=none;html=1;fontSize=14;startArrow=none;startFill=0;endArrow=none;endFill=0;startSize=20;endSize=20;" edge="1" parent="1">
                    <mxGeometry x="-470" y="-330" as="geometry">
                        <mxPoint x="-470" y="425" as="sourcePoint"/>
                        <mxPoint x="71" y="-30" as="offset"/>
                    </mxGeometry>
                </mxCell>
                <mxCell id="94" value="" style="ellipse;whiteSpace=wrap;html=1;aspect=fixed;fontSize=14;strokeColor=#000000;strokeWidth=1;verticalAlign=top;" vertex="1" parent="1">
                    <mxGeometry x="-574" y="250" width="20" height="20" as="geometry"/>
                </mxCell>
                <mxCell id="95" value="" style="shape=requiredInterface;html=1;verticalLabelPosition=bottom;fontSize=14;strokeColor=#000000;strokeWidth=1;verticalAlign=top;rotation=-90;" vertex="1" parent="1">
                    <mxGeometry x="-574" y="240" width="20" height="30" as="geometry"/>
                </mxCell>
                <mxCell id="96" value="" style="whiteSpace=wrap;html=1;fontSize=14;strokeColor=#000000;strokeWidth=1;verticalAlign=middle;aspect=fixed;" vertex="1" parent="1">
                    <mxGeometry x="-582" y="775" width="20" height="20" as="geometry"/>
                </mxCell>
                <mxCell id="97" value="Manifest" style="edgeStyle=orthogonalEdgeStyle;html=1;fontSize=14;endArrow=none;endFill=0;endSize=20;rounded=0;" edge="1" parent="1" source="95" target="157">
                    <mxGeometry as="geometry">
                        <mxPoint x="-620" y="515" as="targetPoint"/>
                        <mxPoint x="-525" y="504.5799999999999" as="sourcePoint"/>
                        <Array as="points">
                            <mxPoint x="-564" y="185"/>
                        </Array>
                        <mxPoint x="58" y="43" as="offset"/>
                    </mxGeometry>
                </mxCell>
                <mxCell id="103" value="«Component»&lt;br style=&quot;font-size: 14px&quot;&gt;&lt;b&gt;DataBase&lt;/b&gt;" style="html=1;dropTarget=0;fontSize=14;verticalAlign=middle;" vertex="1" parent="1">
                    <mxGeometry x="-834" y="930" width="260" height="150" as="geometry"/>
                </mxCell>
                <mxCell id="104" value="" style="shape=module;jettyWidth=8;jettyHeight=4;fontSize=14;" vertex="1" parent="103">
                    <mxGeometry x="1" width="20" height="20" relative="1" as="geometry">
                        <mxPoint x="-27" y="7" as="offset"/>
                    </mxGeometry>
                </mxCell>
                <mxCell id="158" style="edgeStyle=orthogonalEdgeStyle;rounded=0;html=1;fontSize=14;endArrow=none;endFill=0;startSize=10;endSize=10;strokeColor=#000000;" edge="1" parent="1" source="105" target="157">
                    <mxGeometry relative="1" as="geometry"/>
                </mxCell>
                <mxCell id="105" value="«Component»&lt;br style=&quot;font-size: 14px&quot;&gt;&lt;b&gt;CartUI&lt;/b&gt;" style="html=1;dropTarget=0;fontSize=14;" vertex="1" parent="1">
                    <mxGeometry x="-830" y="150" width="180" height="70" as="geometry"/>
                </mxCell>
                <mxCell id="106" value="" style="shape=module;jettyWidth=8;jettyHeight=4;fontSize=14;" vertex="1" parent="105">
                    <mxGeometry x="1" width="20" height="20" relative="1" as="geometry">
                        <mxPoint x="-27" y="7" as="offset"/>
                    </mxGeometry>
                </mxCell>
                <mxCell id="160" style="edgeStyle=orthogonalEdgeStyle;rounded=0;html=1;fontSize=14;endArrow=none;endFill=0;startSize=10;endSize=10;strokeColor=#000000;" edge="1" parent="1" source="108" target="157">
                    <mxGeometry relative="1" as="geometry">
                        <Array as="points">
                            <mxPoint x="-610" y="282"/>
                            <mxPoint x="-610" y="190"/>
                        </Array>
                    </mxGeometry>
                </mxCell>
                <mxCell id="108" value="«Component»&lt;br style=&quot;font-size: 14px&quot;&gt;&lt;b&gt;OrderUI&lt;/b&gt;" style="html=1;dropTarget=0;fontSize=14;" vertex="1" parent="1">
                    <mxGeometry x="-830" y="247.5" width="180" height="70" as="geometry"/>
                </mxCell>
                <mxCell id="109" value="" style="shape=module;jettyWidth=8;jettyHeight=4;fontSize=14;" vertex="1" parent="108">
                    <mxGeometry x="1" width="20" height="20" relative="1" as="geometry">
                        <mxPoint x="-27" y="7" as="offset"/>
                    </mxGeometry>
                </mxCell>
                <mxCell id="154" style="edgeStyle=orthogonalEdgeStyle;html=1;fontSize=14;endArrow=none;endFill=0;startSize=10;endSize=10;strokeColor=#000000;rounded=0;" edge="1" parent="1" source="114" target="141">
                    <mxGeometry relative="1" as="geometry">
                        <Array as="points">
                            <mxPoint x="-440" y="120"/>
                            <mxPoint x="-440" y="320"/>
                        </Array>
                    </mxGeometry>
                </mxCell>
                <mxCell id="171" style="edgeStyle=orthogonalEdgeStyle;rounded=0;html=1;fontSize=14;startArrow=none;startFill=0;endArrow=none;endFill=0;startSize=20;endSize=20;" edge="1" parent="1" source="114" target="170">
                    <mxGeometry relative="1" as="geometry">
                        <Array as="points">
                            <mxPoint x="-200" y="120"/>
                            <mxPoint x="-200" y="315"/>
                        </Array>
                    </mxGeometry>
                </mxCell>
                <mxCell id="114" value="«Component»&lt;br style=&quot;font-size: 14px&quot;&gt;&lt;b style=&quot;font-size: 14px&quot;&gt;Menu&lt;/b&gt;" style="html=1;dropTarget=0;fontSize=14;verticalAlign=top;" vertex="1" parent="1">
                    <mxGeometry x="-420" y="50" width="210" height="140" as="geometry"/>
                </mxCell>
                <mxCell id="115" value="" style="shape=module;jettyWidth=8;jettyHeight=4;fontSize=14;" vertex="1" parent="114">
                    <mxGeometry x="1" width="20" height="20" relative="1" as="geometry">
                        <mxPoint x="-27" y="7" as="offset"/>
                    </mxGeometry>
                </mxCell>
                <mxCell id="159" style="edgeStyle=orthogonalEdgeStyle;rounded=0;html=1;fontSize=14;endArrow=none;endFill=0;startSize=10;endSize=10;strokeColor=#000000;" edge="1" parent="1" source="116" target="157">
                    <mxGeometry relative="1" as="geometry">
                        <Array as="points">
                            <mxPoint x="-610" y="85"/>
                            <mxPoint x="-610" y="180"/>
                        </Array>
                    </mxGeometry>
                </mxCell>
                <mxCell id="116" value="«Component»&lt;br style=&quot;font-size: 14px&quot;&gt;&lt;b&gt;MenuUI&lt;/b&gt;" style="html=1;dropTarget=0;fontSize=14;" vertex="1" parent="1">
                    <mxGeometry x="-830" y="50" width="180" height="70" as="geometry"/>
                </mxCell>
                <mxCell id="117" value="" style="shape=module;jettyWidth=8;jettyHeight=4;fontSize=14;" vertex="1" parent="116">
                    <mxGeometry x="1" width="20" height="20" relative="1" as="geometry">
                        <mxPoint x="-27" y="7" as="offset"/>
                    </mxGeometry>
                </mxCell>
                <mxCell id="124" value="Add item" style="edgeStyle=none;html=1;fontSize=14;startArrow=none;startFill=0;endArrow=none;endFill=0;startSize=20;endSize=20;" edge="1" parent="1" source="114" target="127">
                    <mxGeometry x="1" y="57" relative="1" as="geometry">
                        <mxPoint x="-2" y="15" as="offset"/>
                        <mxPoint x="-373.84000000000003" y="237.0689655172414" as="sourcePoint"/>
                    </mxGeometry>
                </mxCell>
                <mxCell id="125" style="edgeStyle=none;html=1;fontSize=14;endArrow=none;endFill=0;endSize=20;" edge="1" parent="1" source="2" target="126">
                    <mxGeometry relative="1" as="geometry">
                        <mxPoint x="-318.84000000000003" y="180" as="targetPoint"/>
                        <mxPoint x="-430.0043155531031" y="100" as="sourcePoint"/>
                    </mxGeometry>
                </mxCell>
                <mxCell id="126" value="" style="ellipse;whiteSpace=wrap;html=1;aspect=fixed;fontSize=14;strokeColor=#000000;strokeWidth=1;verticalAlign=top;direction=west;" vertex="1" parent="1">
                    <mxGeometry x="-325" y="230" width="20" height="20" as="geometry"/>
                </mxCell>
                <mxCell id="127" value="" style="shape=requiredInterface;html=1;verticalLabelPosition=bottom;fontSize=14;strokeColor=#000000;strokeWidth=1;verticalAlign=top;rotation=90;horizontal=1;direction=west;" vertex="1" parent="1">
                    <mxGeometry x="-325" y="220" width="20" height="30" as="geometry"/>
                </mxCell>
                <mxCell id="128" value="«Component»&lt;br style=&quot;font-size: 14px&quot;&gt;&lt;b&gt;SearchEngine&lt;/b&gt;" style="html=1;dropTarget=0;fontSize=14;" vertex="1" parent="1">
                    <mxGeometry x="-405" y="100" width="180" height="70" as="geometry"/>
                </mxCell>
                <mxCell id="129" value="" style="shape=module;jettyWidth=8;jettyHeight=4;fontSize=14;" vertex="1" parent="128">
                    <mxGeometry x="1" width="20" height="20" relative="1" as="geometry">
                        <mxPoint x="-27" y="7" as="offset"/>
                    </mxGeometry>
                </mxCell>
                <mxCell id="130" value="«Component»&lt;br style=&quot;font-size: 14px&quot;&gt;&lt;b style=&quot;font-size: 14px&quot;&gt;OrderAdminUI&lt;/b&gt;" style="html=1;dropTarget=0;fontSize=14;verticalAlign=middle;" vertex="1" parent="1">
                    <mxGeometry x="-850" y="460" width="190" height="70" as="geometry"/>
                </mxCell>
                <mxCell id="131" value="" style="shape=module;jettyWidth=8;jettyHeight=4;fontSize=14;" vertex="1" parent="130">
                    <mxGeometry x="1" width="20" height="20" relative="1" as="geometry">
                        <mxPoint x="-27" y="7" as="offset"/>
                    </mxGeometry>
                </mxCell>
                <mxCell id="132" value="Confirm/Validate" style="edgeStyle=orthogonalEdgeStyle;html=1;fontSize=14;startArrow=none;startFill=0;endArrow=none;endFill=0;startSize=20;endSize=20;rounded=0;" edge="1" parent="1" source="130" target="135">
                    <mxGeometry x="1" y="34" relative="1" as="geometry">
                        <mxPoint x="15" y="4" as="offset"/>
                        <mxPoint x="-480" y="901.25" as="sourcePoint"/>
                        <Array as="points">
                            <mxPoint x="-640" y="510"/>
                            <mxPoint x="-640" y="510"/>
                        </Array>
                    </mxGeometry>
                </mxCell>
                <mxCell id="133" style="edgeStyle=orthogonalEdgeStyle;html=1;fontSize=14;endArrow=none;endFill=0;endSize=20;" edge="1" parent="1" source="27" target="134">
                    <mxGeometry relative="1" as="geometry">
                        <mxPoint x="-450" y="842.5" as="targetPoint"/>
                        <mxPoint x="-450" y="762.5000000000001" as="sourcePoint"/>
                        <Array as="points">
                            <mxPoint x="-580" y="510"/>
                        </Array>
                    </mxGeometry>
                </mxCell>
                <mxCell id="134" value="" style="ellipse;whiteSpace=wrap;html=1;aspect=fixed;fontSize=14;strokeColor=#000000;strokeWidth=1;verticalAlign=top;" vertex="1" parent="1">
                    <mxGeometry x="-580" y="500" width="20" height="20" as="geometry"/>
                </mxCell>
                <mxCell id="135" value="" style="shape=requiredInterface;html=1;verticalLabelPosition=bottom;fontSize=14;strokeColor=#000000;strokeWidth=1;verticalAlign=top;rotation=-180;horizontal=1;" vertex="1" parent="1">
                    <mxGeometry x="-585" y="495" width="20" height="30" as="geometry"/>
                </mxCell>
                <mxCell id="142" value="" style="edgeStyle=orthogonalEdgeStyle;html=1;fontSize=14;endArrow=none;endFill=0;startSize=10;endSize=10;strokeColor=#000000;rounded=0;" edge="1" parent="1" source="141" target="94">
                    <mxGeometry relative="1" as="geometry"/>
                </mxCell>
                <mxCell id="141" value="" style="whiteSpace=wrap;html=1;aspect=fixed;fontSize=14;strokeColor=#000000;strokeWidth=1;verticalAlign=middle;" vertex="1" parent="1">
                    <mxGeometry x="-480" y="315" width="20" height="20" as="geometry"/>
                </mxCell>
                <mxCell id="143" style="edgeStyle=orthogonalEdgeStyle;html=1;fontSize=14;endArrow=none;endFill=0;rounded=0;" edge="1" source="144" target="145" parent="1">
                    <mxGeometry relative="1" as="geometry">
                        <mxPoint x="-52" y="360" as="targetPoint"/>
                        <Array as="points">
                            <mxPoint x="-360" y="1010"/>
                            <mxPoint x="-360" y="1055"/>
                        </Array>
                    </mxGeometry>
                </mxCell>
                <mxCell id="144" value="" style="verticalLabelPosition=bottom;verticalAlign=top;html=1;shape=mxgraph.basic.rect;fillColor2=none;strokeWidth=1;size=20;indent=5;fontSize=14;" vertex="1" parent="1">
                    <mxGeometry x="-582" y="995" width="20" height="20" as="geometry"/>
                </mxCell>
                <mxCell id="145" value="" style="ellipse;whiteSpace=wrap;html=1;aspect=fixed;fontSize=14;strokeColor=#000000;strokeWidth=1;verticalAlign=top;" vertex="1" parent="1">
                    <mxGeometry x="-232.5" y="1045" width="20" height="20" as="geometry"/>
                </mxCell>
                <mxCell id="148" value="Save/Load data" style="edgeStyle=orthogonalEdgeStyle;html=1;fontSize=14;startArrow=none;startFill=0;endArrow=none;endFill=0;startSize=20;endSize=20;rounded=0;" edge="1" target="151" parent="1" source="139">
                    <mxGeometry x="1" y="-36" relative="1" as="geometry">
                        <mxPoint x="-120" y="570" as="sourcePoint"/>
                        <Array as="points">
                            <mxPoint x="-40" y="320"/>
                        </Array>
                        <mxPoint x="-12" y="2" as="offset"/>
                    </mxGeometry>
                </mxCell>
                <mxCell id="151" value="" style="shape=requiredInterface;html=1;verticalLabelPosition=bottom;fontSize=14;strokeColor=#000000;strokeWidth=1;verticalAlign=top;rotation=0;" vertex="1" parent="1">
                    <mxGeometry x="-227.5" y="1040" width="20" height="30" as="geometry"/>
                </mxCell>
                <mxCell id="157" value="" style="whiteSpace=wrap;html=1;aspect=fixed;fontSize=14;strokeColor=#000000;strokeWidth=1;verticalAlign=middle;" vertex="1" parent="1">
                    <mxGeometry x="-600" y="175" width="20" height="20" as="geometry"/>
                </mxCell>
                <mxCell id="163" value="" style="whiteSpace=wrap;html=1;aspect=fixed;fontSize=14;strokeColor=#000000;strokeWidth=1;verticalAlign=middle;" vertex="1" parent="1">
                    <mxGeometry x="-480" y="500" width="20" height="20" as="geometry"/>
                </mxCell>
                <mxCell id="164" value="" style="whiteSpace=wrap;html=1;aspect=fixed;fontSize=14;strokeColor=#000000;strokeWidth=1;verticalAlign=middle;" vertex="1" parent="1">
                    <mxGeometry x="-670" y="500" width="20" height="20" as="geometry"/>
                </mxCell>
                <mxCell id="168" value="" style="whiteSpace=wrap;html=1;aspect=fixed;fontSize=14;strokeColor=#000000;strokeWidth=1;verticalAlign=middle;" vertex="1" parent="1">
                    <mxGeometry x="-330" y="550" width="20" height="20" as="geometry"/>
                </mxCell>
                <mxCell id="170" value="" style="whiteSpace=wrap;html=1;aspect=fixed;fontSize=14;strokeColor=#000000;strokeWidth=1;verticalAlign=middle;" vertex="1" parent="1">
                    <mxGeometry x="-180" y="310" width="20" height="20" as="geometry"/>
                </mxCell>
                <mxCell id="183" value="Save/Load wallet" style="edgeStyle=orthogonalEdgeStyle;rounded=0;html=1;fontSize=14;startArrow=none;startFill=0;endArrow=none;endFill=0;startSize=20;endSize=20;" edge="1" parent="1" source="177" target="182">
                    <mxGeometry x="1" y="-32" relative="1" as="geometry">
                        <Array as="points">
                            <mxPoint x="-80" y="840"/>
                            <mxPoint x="-80" y="945"/>
                        </Array>
                        <mxPoint x="-14" y="3" as="offset"/>
                    </mxGeometry>
                </mxCell>
                <mxCell id="177" value="" style="whiteSpace=wrap;html=1;aspect=fixed;fontSize=14;strokeColor=#000000;strokeWidth=1;verticalAlign=middle;" vertex="1" parent="1">
                    <mxGeometry x="-180" y="830" width="20" height="20" as="geometry"/>
                </mxCell>
                <mxCell id="181" value="" style="ellipse;whiteSpace=wrap;html=1;aspect=fixed;fontSize=14;strokeColor=#000000;strokeWidth=1;verticalAlign=top;" vertex="1" parent="1">
                    <mxGeometry x="-235" y="935" width="20" height="20" as="geometry"/>
                </mxCell>
                <mxCell id="184" style="edgeStyle=orthogonalEdgeStyle;rounded=0;html=1;fontSize=14;startArrow=none;startFill=0;endArrow=none;endFill=0;startSize=20;endSize=20;" edge="1" parent="1" source="181" target="144">
                    <mxGeometry relative="1" as="geometry">
                        <mxPoint x="-230" y="945" as="sourcePoint"/>
                        <Array as="points">
                            <mxPoint x="-360" y="945"/>
                            <mxPoint x="-360" y="1000"/>
                        </Array>
                    </mxGeometry>
                </mxCell>
                <mxCell id="182" value="" style="shape=requiredInterface;html=1;verticalLabelPosition=bottom;fontSize=14;strokeColor=#000000;strokeWidth=1;verticalAlign=top;rotation=0;" vertex="1" parent="1">
                    <mxGeometry x="-230" y="930" width="20" height="30" as="geometry"/>
                </mxCell>
            </root>
        </mxGraphModel>
    </diagram>
</mxfile>